<svg width="756.126" height="423.016" viewBox="0 0 567.094 317.262" xmlns="http://www.w3.org/2000/svg" xmlns:xlink="http://www.w3.org/1999/xlink" color-interpolation-filters="sRGB" stroke-linecap="square" stroke-miterlimit="3" fill="none" fill-rule="evenodd" font-size="12" xml:space="preserve" overflow="visible"><g><g id="shape4-1" transform="translate(34.0571 -32.5553)"><rect x="0" y="294.585" width="32.5984" height="22.6772" stroke="#000000" stroke-width="1.5" stroke-linecap="round" stroke-linejoin="round" fill="#FFFFFF"/></g><g id="shape3-3" transform="translate(34.0571 -245.154)"><rect x="0" y="294.585" width="32.5984" height="22.6772" stroke="#000000" stroke-width="1.5" stroke-linecap="round" stroke-linejoin="round" fill="#FFFFFF"/></g><g id="shape1-5" transform="translate(0.75 -55.2325)"><rect x="0" y="127.341" width="99.2126" height="189.921" stroke="#000000" stroke-width="1.5" stroke-linecap="round" stroke-linejoin="round" fill="#FFFFFF"/></g><g id="shape5-7" transform="translate(16.9075 -206.886)"><path d="M32.6 278.99 32.6 317.26 0 317.26" stroke="#000000" stroke-width="2.25" stroke-linecap="round" stroke-linejoin="round"/></g><g id="shape6-10" transform="translate(29.0964 -55.2325)"><path d="M0 146.47 21.26 264.99 21.26 317.26" stroke="#000000" stroke-width="3" stroke-linecap="round" stroke-linejoin="round"/></g><g id="shape8-13" transform="matrix(0.954744 0.297428 -0.297428 0.954744 142.93 -247.73)"><path d="M0 311.25C0.36 308.78 0.72 305.91 1.41 303.39 4.18 293.32 12.34 288.67 21.16 283.87 37.9 274.76 57.04 265.11 76.48 261.29 98.11 257.05 120.12 260.05 135.74 270.44 146.77 277.78 154.61 288.8 164.8 297.02 194.19 320.73 243.12 321.22 285.92 311.25" stroke="#000000" stroke-width="2.25" stroke-linecap="round" stroke-linejoin="round"/></g><g id="shape10-16" transform="matrix(0.983382 -0.181547 0.181547 0.983382 -1.23163 5.27221)"><path d="M0 284.16C-7.64 303.06 9.81 307.24 26.8 310.72 60.56 317.65 92.54 321.87 117.96 308.82 127.99 303.66 137 295.82 146.86 289.65 184.56 266.05 234.7 266.87 281.05 284.16" stroke="#000000" stroke-width="2.25" stroke-linecap="round" stroke-linejoin="round"/></g><g id="shape11-19" transform="translate(326.734 -196.965)"><path d="M0 317.26 55.93 317.26 61.42 317.26" stroke="#0070C0" stroke-width="2.25"/></g><g id="shape13-22" transform="translate(326.734 -168.618)"><path d="M0 317.26 63.19 317.26" stroke="#00B050" stroke-width="2.25"/></g><g id="shape14-25" transform="translate(326.734 -83.579)"><path d="M0 317.26 64.96 317.26" stroke="#A5A5A5" stroke-width="2.25"/></g><g id="shape15-28" transform="translate(394.829 -188.461)"><rect x="0" y="294.585" width="158.677" height="22.6772" stroke-width="4.5" stroke-linecap="round" stroke-linejoin="round"/><text fill="#000000" font-family="Arial" font-size="150%" x="4" y="311.32">PIN2</text></g><g id="shape17-31" transform="translate(394.829 -157.28)"><rect x="0" y="294.585" width="170.016" height="22.6772" stroke-width="4.5" stroke-linecap="round" stroke-linejoin="round"/><text fill="#000000" font-family="Arial" font-size="150%" x="4" y="311.32">PIN3</text></g><g id="shape18-34" transform="translate(396.215 -72.2404)"><rect x="0" y="294.585" width="145.953" height="22.6772" stroke-width="4.5" stroke-linecap="round" stroke-linejoin="round"/><text fill="#000000" font-family="Arial" font-size="150%" x="4" y="311.32">PIN8</text></g><g id="shape19-37" transform="translate(340.97 -201.408)"><rect x="0" y="304.698" width="32.5984" height="12.5643" stroke-width="0.75" stroke-linecap="round" stroke-linejoin="round"/><text fill="#000000" font-family="Arial" font-weight="700" font-size="100.001%" x="12.96" y="314.58">1</text></g><g id="shape20-40" transform="translate(340.97 -173.36)"><rect x="0" y="304.698" width="32.5984" height="12.5643" stroke-width="0.75" stroke-linecap="round" stroke-linejoin="round"/><text fill="#000000" font-family="Arial" font-weight="700" font-size="100.001%" x="12.96" y="314.58">2</text></g><g id="shape21-43" transform="translate(340.97 -88.0225)"><rect x="0" y="304.698" width="32.5984" height="12.5643" stroke-width="0.75" stroke-linecap="round" stroke-linejoin="round"/><text fill="#000000" font-family="Arial" font-weight="700" font-size="100.001%" x="12.96" y="314.58">3</text></g></g></svg>